<svg width="1040" height="1024" viewBox="0 0 1040 1024" fill="none" xmlns="http://www.w3.org/2000/svg">
<path d="M691.175 278.107L734.949 309.728L673.716 383.988L691.175 278.107Z" fill="url(#paint0_linear_8_51)"/>
<path d="M870.838 137.609C818.21 89.0545 755.926 51.8868 687.964 28.4785C620.001 5.07014 547.852 -4.06475 476.121 1.65682C404.39 7.37838 334.652 27.8307 271.359 61.7086C208.065 95.5864 152.606 142.146 108.521 198.415C64.4355 254.684 32.6923 319.427 15.3171 388.513C-2.05814 457.598 -4.68373 529.508 7.60785 599.654C19.8994 669.799 46.8382 736.639 86.7049 795.908C126.572 855.177 178.491 905.573 239.149 943.88L380.657 766.871C346.551 745.332 297.795 705.033 275.379 671.708C252.963 638.383 237.816 600.801 230.905 561.361C223.994 521.92 225.47 481.487 235.24 442.643C245.009 403.799 262.858 367.396 287.645 335.757C312.433 304.119 343.616 277.94 379.204 258.892C414.791 239.844 454.003 228.344 494.335 225.127C534.667 221.91 575.234 227.046 613.447 240.208C651.66 253.37 703.011 284.819 732.602 312.12L870.838 137.609Z" fill="url(#paint1_linear_8_51)"/>
<path d="M918.629 182.697C927.949 193.698 936.815 205.1 945.195 216.88C986.603 275.083 1015.28 341.194 1029.41 410.993C1043.54 480.791 1042.8 552.746 1027.24 622.263C1011.69 691.78 981.653 757.334 939.059 814.741C896.465 872.147 842.246 920.144 779.863 955.671C717.48 991.197 648.302 1013.47 576.745 1021.07C505.189 1028.67 432.825 1021.43 364.272 999.816C340.734 992.393 317.823 983.332 295.703 972.723L440.943 788.524C477.176 798.862 515.124 802.145 552.677 798.156C592.911 793.882 631.807 781.359 666.882 761.384C701.958 741.409 732.444 714.42 756.394 682.142C780.343 649.865 797.229 613.006 805.976 573.919C814.724 534.832 815.139 494.374 807.196 455.129C800.899 424.021 789.456 394.219 773.388 366.898L918.629 182.697Z" fill="url(#paint2_linear_8_51)"/>
<path d="M774.629 365.894C800.3 408.768 815.033 458.773 815.033 512.173C815.033 671.253 684.305 800.213 523.044 800.213C494.508 800.213 466.928 796.17 440.859 788.641L774.629 365.894Z" fill="url(#paint3_linear_8_51)"/>
<defs>
<linearGradient id="paint0_linear_8_51" x1="676.108" y1="378.804" x2="730.753" y2="312.12" gradientUnits="userSpaceOnUse">
<stop stop-color="#1D2426"/>
<stop offset="1" stop-color="#317673"/>
</linearGradient>
<linearGradient id="paint1_linear_8_51" x1="288.966" y1="865.971" x2="788.173" y2="233.396" gradientUnits="userSpaceOnUse">
<stop stop-color="#1C2225"/>
<stop offset="1" stop-color="#1D2426"/>
</linearGradient>
<linearGradient id="paint2_linear_8_51" x1="373.248" y1="883.569" x2="846.522" y2="284.335" gradientUnits="userSpaceOnUse">
<stop stop-color="#1A2227"/>
<stop offset="1" stop-color="#3B8E8E"/>
</linearGradient>
<linearGradient id="paint3_linear_8_51" x1="453.826" y1="786.32" x2="774.281" y2="376.952" gradientUnits="userSpaceOnUse">
<stop stop-color="#317673"/>
<stop offset="1" stop-color="#3FA19E"/>
</linearGradient>
</defs>
</svg>
